<svg xmlns="http://www.w3.org/2000/svg" width="16.023" height="14.156" viewBox="0 0 16.023 14.156">
  <g id="like" transform="translate(0)">
    <g id="Group_3171" data-name="Group 3171" transform="translate(0 0)">
      <path id="Path_4039" data-name="Path 4039" d="M14.854,31.227a4.036,4.036,0,0,0-6.444.464,6.144,6.144,0,0,0-.4.647,6.139,6.139,0,0,0-.4-.647,4.036,4.036,0,0,0-6.444-.464A4.857,4.857,0,0,0,0,34.453a5.948,5.948,0,0,0,1.638,3.9,36.47,36.47,0,0,0,4.1,3.83c.62.528,1.261,1.075,1.944,1.672l.02.018a.469.469,0,0,0,.618,0l.02-.018c.683-.6,1.324-1.144,1.944-1.672a36.465,36.465,0,0,0,4.1-3.83,5.948,5.948,0,0,0,1.638-3.9A4.857,4.857,0,0,0,14.854,31.227Z" transform="translate(0 -29.836)" fill="#ff263c"/>
    </g>
  </g>
</svg>
