<svg xmlns="http://www.w3.org/2000/svg" xmlns:xlink="http://www.w3.org/1999/xlink" width="58.02" height="58.02" viewBox="0 0 58.02 58.02">
  <defs>
    <linearGradient id="linear-gradient" x1="0.5" x2="0.5" y2="1" gradientUnits="objectBoundingBox">
      <stop offset="0" stop-color="#8d8af4"/>
      <stop offset="0.506" stop-color="#fc8af0"/>
      <stop offset="1" stop-color="#78b7ff"/>
      <stop offset="1" stop-color="#78b8ff"/>
    </linearGradient>
  </defs>
  <path id="affiliate-marketing" d="M50.1,42.681a6.747,6.747,0,0,0-4.474,1.693l-4.31-4.389a16.616,16.616,0,0,0,4.328-10.069H49.32a4.428,4.428,0,1,0-.112-1.813H45.674a16.608,16.608,0,0,0-4.156-10.378l4.428-4.349a6.771,6.771,0,1,0-1.268-1.289l-4.427,4.347A16.615,16.615,0,0,0,29.917,12.09V8.765a4.429,4.429,0,1,0-1.813,0V12.09a16.608,16.608,0,0,0-10.111,4.144L13.8,11.969a6.782,6.782,0,1,0-1.24,1.318L16.7,17.5a16.614,16.614,0,0,0-4.356,10.6H8.811A4.43,4.43,0,1,0,8.7,29.916h3.675A16.61,16.61,0,0,0,16.5,39.761L12.236,43.95a6.783,6.783,0,1,0,1.318,1.24l4.214-4.138A16.614,16.614,0,0,0,28.1,45.4v3.859a4.429,4.429,0,1,0,1.813,0V45.4a16.609,16.609,0,0,0,10.111-4.144l4.411,4.491A6.775,6.775,0,1,0,50.1,42.681ZM53.59,26.127a2.616,2.616,0,1,1-2.616,2.616A2.619,2.619,0,0,1,53.59,26.127ZM4.429,31.359a2.616,2.616,0,1,1,2.616-2.616A2.619,2.619,0,0,1,4.429,31.359ZM50.1,3.063a4.964,4.964,0,1,1-4.964,4.964A4.97,4.97,0,0,1,50.1,3.063ZM26.394,4.429A2.616,2.616,0,1,1,29.01,7.045,2.619,2.619,0,0,1,26.394,4.429Zm-18.1,8.563a4.964,4.964,0,1,1,4.964-4.964A4.97,4.97,0,0,1,8.295,12.992Zm0,41.43a4.964,4.964,0,1,1,4.964-4.964A4.97,4.97,0,0,1,8.295,54.422Zm5.85-25.68A14.865,14.865,0,1,1,29.01,43.608,14.882,14.882,0,0,1,14.145,28.743ZM31.626,53.59a2.616,2.616,0,1,1-2.616-2.616A2.619,2.619,0,0,1,31.626,53.59Zm18.477.832a4.964,4.964,0,1,1,4.964-4.964A4.97,4.97,0,0,1,50.1,54.422ZM30.188,40.566a2.8,2.8,0,0,0,1.982-.819l.469-.469a.907.907,0,0,0,0-1.282l-3.662-3.662a24.708,24.708,0,0,1,7.39-2.572,1.954,1.954,0,0,0,.954-3.289l-2.438-2.438a2.945,2.945,0,0,0-4.006-4.005l-2.6-2.6a1.954,1.954,0,0,0-3.264.855c-.119.425-.235.856-.357,1.312a25.338,25.338,0,0,1-2.7,7.13l-2.5,2.5a4.357,4.357,0,0,0,6.162,6.162l.113-.113,2.471,2.471A2.8,2.8,0,0,0,30.188,40.566ZM33.11,23.8a1.128,1.128,0,0,1,.331.791L32.319,23.47A1.129,1.129,0,0,1,33.11,23.8Zm-6.248-3.124a.185.185,0,0,1,.046-.007.12.12,0,0,1,.089.044l9.041,9.041a.141.141,0,0,1-.069.238q-.451.1-.906.208l-8.543-8.543c.081-.3.161-.595.241-.882A.121.121,0,0,1,26.862,20.676Zm-.89,3,7.052,7.052a20.2,20.2,0,0,0-5.365,2.291l-3.848-3.848A23.8,23.8,0,0,0,25.972,23.672Zm-5.23,12.434a2.547,2.547,0,0,1,0-3.6l1.923-1.923,3.6,3.6L24.34,36.106A2.547,2.547,0,0,1,20.742,36.106Zm6.8-.641,3.149,3.15a.991.991,0,0,1-1.207-.15l-2.471-2.471Zm7.434-13.532a.906.906,0,0,1,0-1.282l1.206-1.206a.907.907,0,0,1,1.282,1.282l-1.206,1.206a.906.906,0,0,1-1.282,0Zm-3.613-2.4V17.827a.907.907,0,1,1,1.813,0v1.706a.907.907,0,1,1-1.813,0ZM37.219,23.8h1.706a.907.907,0,0,1,0,1.813H37.219a.907.907,0,1,1,0-1.813Z" fill="url(#linear-gradient)"/>
</svg>
