<svg xmlns="http://www.w3.org/2000/svg" xmlns:xlink="http://www.w3.org/1999/xlink" width="60.38" height="60.38" viewBox="0 0 60.38 60.38">
  <defs>
    <linearGradient id="linear-gradient" x1="0.5" x2="0.5" y2="1" gradientUnits="objectBoundingBox">
      <stop offset="0" stop-color="#8d8af4"/>
      <stop offset="0.506" stop-color="#fc8af0"/>
      <stop offset="1" stop-color="#78b7ff"/>
      <stop offset="1" stop-color="#78b8ff"/>
    </linearGradient>
  </defs>
  <g id="digital-products" transform="translate(-16 -16)">
    <path id="Path_135233" data-name="Path 135233" d="M75.374,230.19H74.367V202.264A2.267,2.267,0,0,0,72.1,200h-.755v2.013H72.1a.252.252,0,0,1,.252.252V230.19h-16.1a1.006,1.006,0,0,0-.45.106l-1.8.9H38.377l-1.8-.9a1,1,0,0,0-.45-.106h-16.1V202.264a.252.252,0,0,1,.252-.252h.755V200h-.755a2.267,2.267,0,0,0-2.264,2.264V230.19H17.006A1.006,1.006,0,0,0,16,231.2v2.516a3.526,3.526,0,0,0,3.522,3.522H66.317v-2.013H19.522a1.511,1.511,0,0,1-1.509-1.51V232.2H35.889l1.8.9a1,1,0,0,0,.45.106h16.1a1.006,1.006,0,0,0,.45-.106l1.8-.9H74.367v1.51a1.511,1.511,0,0,1-1.509,1.509H68.329v2.013h4.528a3.526,3.526,0,0,0,3.522-3.522V231.2A1.006,1.006,0,0,0,75.374,230.19Z" transform="translate(0 -160.854)" fill="url(#linear-gradient)"/>
    <path id="Path_135234" data-name="Path 135234" d="M72.35,35.884l7.044,6.038a1.006,1.006,0,0,0,1.367-.052l.295-.295v18.7a1.006,1.006,0,0,0,.6.92l9.057,4.025a1.008,1.008,0,0,0,.409.087H99.17a1.008,1.008,0,0,0,.409-.087l9.057-4.025a1.006,1.006,0,0,0,.6-.92v-18.7l.295.295a1.006,1.006,0,0,0,1.367.052l7.044-6.038a1.006,1.006,0,0,0,.194-1.3l-7.044-11.07a1.006,1.006,0,0,0-.453-.385l-5.679-2.434a1.006,1.006,0,0,0-.043-1.378L101.894,16.3a1.01,1.01,0,0,0-.712-.3H89.106a1.009,1.009,0,0,0-.712.295l-3.019,3.019a1.006,1.006,0,0,0-.043,1.378l-5.68,2.434a1.006,1.006,0,0,0-.453.385l-2.561,4.025,1.7,1.081,2.395-3.763,6.295-2.7,5.451,4.672a1.006,1.006,0,0,0,1.367-.052l1.3-1.3,1.3,1.3a1.006,1.006,0,0,0,1.367.052l5.451-4.672,6.295,2.7,6.409,10.071-5.674,4.863-.26-.26L107.077,34.6l-1.726,1.036,1.918,3.2a1,1,0,0,0-.049.31V59.624L98.956,63.3H96.15V57.26H94.138V63.3H91.333l-8.265-3.673V39.146a1.006,1.006,0,0,0-.049-.311l1.918-3.2L83.212,34.6l-2.955,4.925-.26.26-5.674-4.863,2.733-4.3-1.7-1.081-3.2,5.032A1.006,1.006,0,0,0,72.35,35.884ZM93.079,24.692l-5.512-4.724,1.482-1.482L93.773,24ZM95.144,22.5l-3.85-4.492h7.7Zm2.065,2.189L96.515,24l4.724-5.512,1.482,1.482Z" transform="translate(-48.954)" fill="url(#linear-gradient)"/>
    <rect id="Rectangle_20976" data-name="Rectangle 20976" width="1.63" height="1.63" transform="translate(45.375 28.259)" fill="url(#linear-gradient)"/>
    <rect id="Rectangle_20977" data-name="Rectangle 20977" width="1.63" height="2.038" transform="translate(45.375 33.964)" fill="url(#linear-gradient)"/>
    <rect id="Rectangle_20978" data-name="Rectangle 20978" width="1.63" height="2.038" transform="translate(45.375 40.077)" fill="url(#linear-gradient)"/>
    <rect id="Rectangle_20979" data-name="Rectangle 20979" width="1.63" height="2.038" transform="translate(45.375 46.19)" fill="url(#linear-gradient)"/>
    <rect id="Rectangle_20980" data-name="Rectangle 20980" width="1.63" height="2.038" transform="translate(45.375 52.303)" fill="url(#linear-gradient)"/>
    <rect id="Rectangle_20981" data-name="Rectangle 20981" width="4.075" height="2.038" transform="translate(50.265 33.964)" fill="url(#linear-gradient)"/>
    <path id="Path_135235" data-name="Path 135235" d="M113.971,275.817,118,271.791a1.006,1.006,0,0,0,0-1.423l-4.025-4.025-1.423,1.423,3.314,3.314-3.314,3.314ZM76.32,266.343l-4.025,4.025a1.006,1.006,0,0,0,0,1.423l4.025,4.025,1.423-1.423-3.314-3.314,3.314-3.314Z" transform="translate(-48.955 -218.852)" fill="url(#linear-gradient)"/>
  </g>
</svg>
