<svg xmlns="http://www.w3.org/2000/svg" xmlns:xlink="http://www.w3.org/1999/xlink" width="57.526" height="57.526" viewBox="0 0 57.526 57.526">
  <defs>
    <linearGradient id="linear-gradient" x1="0.5" x2="0.5" y2="1" gradientUnits="objectBoundingBox">
      <stop offset="0" stop-color="#8d8af4"/>
      <stop offset="0.506" stop-color="#fc8af0"/>
      <stop offset="1" stop-color="#78b7ff"/>
      <stop offset="1" stop-color="#78b8ff"/>
    </linearGradient>
  </defs>
  <g id="Group_75882" data-name="Group 75882" transform="translate(-1001.237 -1446.237)">
    <g id="trade" transform="translate(999.237 1444.237)">
      <path id="Path_135236" data-name="Path 135236" d="M56.65,2H4.876A2.876,2.876,0,0,0,2,4.876v39.31a2.876,2.876,0,0,0,2.876,2.876H26.928v4.794a.959.959,0,0,1-.959.959H12.547A2.876,2.876,0,0,0,9.67,55.691v.959a2.876,2.876,0,0,0,2.876,2.876H48.98a2.876,2.876,0,0,0,2.876-2.876v-.959a2.876,2.876,0,0,0-2.876-2.876H35.557a.959.959,0,0,1-.959-.959V47.062H56.65a2.876,2.876,0,0,0,2.876-2.876V4.876A2.876,2.876,0,0,0,56.65,2Zm.959,2.876v15.34H31.722V3.918H56.65A.959.959,0,0,1,57.609,4.876ZM29.8,39.392H3.918V22.134H29.8Zm1.918-17.258H57.609V39.392H31.722ZM4.876,3.918H29.8v16.3H3.918V4.876A.959.959,0,0,1,4.876,3.918ZM35.557,54.733H48.98a.959.959,0,0,1,.959.959v.959a.959.959,0,0,1-.959.959H12.547a.959.959,0,0,1-.959-.959v-.959a.959.959,0,0,1,.959-.959H25.969a2.876,2.876,0,0,0,2.876-2.876V47.062h3.835v4.794A2.876,2.876,0,0,0,35.557,54.733ZM56.65,45.145H4.876a.959.959,0,0,1-.959-.959V41.31H57.609v2.876A.959.959,0,0,1,56.65,45.145Z" fill="url(#linear-gradient)"/>
      <rect id="Rectangle_20982" data-name="Rectangle 20982" width="2" height="1" transform="translate(53.763 42.763)" fill="url(#linear-gradient)"/>
      <rect id="Rectangle_20983" data-name="Rectangle 20983" width="2" height="1" transform="translate(49.763 42.763)" fill="url(#linear-gradient)"/>
      <rect id="Rectangle_20984" data-name="Rectangle 20984" width="2" height="1" transform="translate(45.763 42.763)" fill="url(#linear-gradient)"/>
      <rect id="Rectangle_20985" data-name="Rectangle 20985" width="4" height="1" transform="translate(5.763 42.763)" fill="url(#linear-gradient)"/>
    </g>
    <path id="Path_135237" data-name="Path 135237" d="M19.488,15.991a2.844,2.844,0,0,0,1.3-2.326A2.654,2.654,0,0,0,18.361,11a2.654,2.654,0,0,0-2.423,2.665,2.844,2.844,0,0,0,1.3,2.326A4.369,4.369,0,0,0,14,20.207a.243.243,0,0,0,.242.242H22.48a.243.243,0,0,0,.242-.242A4.369,4.369,0,0,0,19.488,15.991Zm-3.065-2.326a2.154,2.154,0,0,1,1.938-2.181,2.2,2.2,0,0,1,0,4.361A2.154,2.154,0,0,1,16.423,13.665Zm-1.926,6.3a3.872,3.872,0,0,1,7.729,0Z" transform="translate(1025.639 1441.275)" fill="url(#linear-gradient)"/>
    <path id="Path_135238" data-name="Path 135238" d="M19.488,15.991a2.844,2.844,0,0,0,1.3-2.326A2.654,2.654,0,0,0,18.361,11a2.654,2.654,0,0,0-2.423,2.665,2.844,2.844,0,0,0,1.3,2.326A4.369,4.369,0,0,0,14,20.207a.243.243,0,0,0,.242.242H22.48a.243.243,0,0,0,.242-.242A4.369,4.369,0,0,0,19.488,15.991Zm-3.065-2.326a2.154,2.154,0,0,1,1.938-2.181,2.2,2.2,0,0,1,0,4.361A2.154,2.154,0,0,1,16.423,13.665Zm-1.926,6.3a3.872,3.872,0,0,1,7.729,0Z" transform="translate(998.639 1441.275)" fill="url(#linear-gradient)"/>
    <path id="Path_135239" data-name="Path 135239" d="M19.488,15.991a2.844,2.844,0,0,0,1.3-2.326A2.654,2.654,0,0,0,18.361,11a2.654,2.654,0,0,0-2.423,2.665,2.844,2.844,0,0,0,1.3,2.326A4.369,4.369,0,0,0,14,20.207a.243.243,0,0,0,.242.242H22.48a.243.243,0,0,0,.242-.242A4.369,4.369,0,0,0,19.488,15.991Zm-3.065-2.326a2.154,2.154,0,0,1,1.938-2.181,2.2,2.2,0,0,1,0,4.361A2.154,2.154,0,0,1,16.423,13.665Zm-1.926,6.3a3.872,3.872,0,0,1,7.729,0Z" transform="translate(1025.639 1459.275)" fill="url(#linear-gradient)"/>
    <path id="Path_135240" data-name="Path 135240" d="M19.488,15.991a2.844,2.844,0,0,0,1.3-2.326A2.654,2.654,0,0,0,18.361,11a2.654,2.654,0,0,0-2.423,2.665,2.844,2.844,0,0,0,1.3,2.326A4.369,4.369,0,0,0,14,20.207a.243.243,0,0,0,.242.242H22.48a.243.243,0,0,0,.242-.242A4.369,4.369,0,0,0,19.488,15.991Zm-3.065-2.326a2.154,2.154,0,0,1,1.938-2.181,2.2,2.2,0,0,1,0,4.361A2.154,2.154,0,0,1,16.423,13.665Zm-1.926,6.3a3.872,3.872,0,0,1,7.729,0Z" transform="translate(998.639 1459.275)" fill="url(#linear-gradient)"/>
  </g>
</svg>
