<svg xmlns="http://www.w3.org/2000/svg" xmlns:xlink="http://www.w3.org/1999/xlink" width="60.001" height="50.746" viewBox="0 0 60.001 50.746">
  <defs>
    <linearGradient id="linear-gradient" x1="0.5" x2="0.5" y2="1" gradientUnits="objectBoundingBox">
      <stop offset="0" stop-color="#8d8af4"/>
      <stop offset="0.506" stop-color="#fc8af0"/>
      <stop offset="1" stop-color="#78b7ff"/>
      <stop offset="1" stop-color="#78b8ff"/>
    </linearGradient>
  </defs>
  <g id="analytics" transform="translate(-2.5 -6.237)">
    <path id="Path_135241" data-name="Path 135241" d="M61.386,53.507H57.477V19.68a1.253,1.253,0,0,0-1.253-1.253h-7.58a1.253,1.253,0,0,0-1.253,1.253V53.507H41.966V26.646a1.253,1.253,0,0,0-1.253-1.253H33.2a1.253,1.253,0,0,0-1.253,1.253V53.507H26.555V36.117A1.253,1.253,0,0,0,25.3,34.865H17.785a1.253,1.253,0,0,0-1.253,1.253v17.39H12.41V11.323a1.253,1.253,0,0,0-2.506,0V54.76a1.253,1.253,0,0,0,1.253,1.253h50.09a1.253,1.253,0,1,0,0-2.506ZM49.9,20.933h5.074V53.507H49.9ZM34.449,27.9H39.46V53.507H34.449ZM18.975,37.37h5.012V53.507H18.975ZM3.753,16.109H6.008a1.253,1.253,0,1,0,0-2.506H3.753a1.253,1.253,0,1,0,0,2.506Zm0,7.5H6.008a1.253,1.253,0,1,0,0-2.506H3.753a1.253,1.253,0,1,0,0,2.506Zm0,7.492H6.008a1.253,1.253,0,1,0,0-2.506H3.753a1.253,1.253,0,1,0,0,2.506Zm0,7.5H6.008a1.253,1.253,0,1,0,0-2.506H3.753a1.253,1.253,0,1,0,0,2.506Zm0,7.5H6.008a1.253,1.253,0,0,0,0-2.506H3.753a1.253,1.253,0,0,0,0,2.506Zm0,7.5H6.008a1.253,1.253,0,1,0,0-2.506H3.753a1.253,1.253,0,1,0,0,2.506Z" transform="translate(0 0.969)" fill="url(#linear-gradient)"/>
    <path id="Path_135242" data-name="Path 135242" d="M15.325,25.836a1.259,1.259,0,0,0,.263,2.493h.238c.789-.163,18.267-3.759,30.47-16.939l-.088,1.165a1.253,1.253,0,0,0,1.165,1.328h.088a1.253,1.253,0,0,0,1.253-1.178L49,7.581a1.253,1.253,0,0,0-1.453-1.328l-5.012.827a1.269,1.269,0,0,0,.4,2.506l1.8-.288C33.1,22.228,15.513,25.811,15.325,25.836Z" transform="translate(2.987 0)" fill="url(#linear-gradient)"/>
  </g>
</svg>
