<svg xmlns="http://www.w3.org/2000/svg" width="21.039" height="21.04" viewBox="0 0 21.039 21.04">
  <g id="odds" transform="translate(0)">
    <path id="Path_135230" data-name="Path 135230" d="M.277,2.826,1.3,3.553.913,4.724a.658.658,0,0,0,.232.736.68.68,0,0,0,.772.008l1.042-.739L4,5.467a.657.657,0,0,0,1-.744l-.389-1.17,1.014-.719a.657.657,0,0,0-.369-1.2H3.976L3.582.45a.657.657,0,0,0-1.248,0L1.941,1.632H.657a.657.657,0,0,0-.38,1.194ZM2.415,2.29,2.958.657,3.5,2.29H5.26L3.837,3.3l.543,1.632L2.958,3.922,1.536,4.931,2.08,3.3.657,2.29ZM15.4,2.826l1.025.727-.389,1.17a.658.658,0,0,0,.232.736.68.68,0,0,0,.772.008l1.042-.739,1.042.739a.657.657,0,0,0,1-.744l-.389-1.17,1.014-.719a.657.657,0,0,0-.369-1.2H19.1L18.7.45a.657.657,0,0,0-1.248,0l-.393,1.183H15.778a.657.657,0,0,0-.38,1.194Zm2.138-.536L18.08.657l.543,1.632h1.758L18.958,3.3,19.5,4.931,18.079,3.922,16.657,4.931,17.2,3.3,15.778,2.29Zm2.844,14.793H19.1L18.7,15.9a.657.657,0,0,0-1.248,0l-.393,1.183H15.778a.657.657,0,0,0-.38,1.194L16.423,19l-.389,1.17a.658.658,0,0,0,.232.736.669.669,0,0,0,.772.008l1.042-.739,1.042.739a.657.657,0,0,0,1-.744L19.736,19l1.014-.719a.657.657,0,0,0-.369-1.2ZM18.959,18.75l.543,1.632L18.08,19.373l-1.422,1.009L17.2,18.75l-1.422-1.009h1.758l.543-1.632.543,1.632h1.758ZM5.26,17.083H3.976L3.582,15.9a.657.657,0,0,0-1.248,0l-.393,1.183H.657a.657.657,0,0,0-.38,1.194L1.3,19l-.389,1.17a.657.657,0,0,0,1,.744l1.042-.739L4,20.918a.669.669,0,0,0,.772-.008A.658.658,0,0,0,5,20.175L4.615,19l1.014-.719a.657.657,0,0,0-.369-1.2ZM3.837,18.75l.543,1.632L2.958,19.373,1.536,20.382,2.08,18.75.657,17.741H2.415l.543-1.632L3.5,17.741H5.26ZM16.921,9.867l-2.634-4.6A1.318,1.318,0,0,0,13.146,4.6H7.892a1.318,1.318,0,0,0-1.141.662l-2.634,4.6a1.319,1.319,0,0,0,0,1.306l2.634,4.6a1.318,1.318,0,0,0,1.141.662h5.254a1.318,1.318,0,0,0,1.141-.662l2.634-4.6a1.319,1.319,0,0,0,0-1.307Zm-.57.98-2.634,4.6a.659.659,0,0,1-.571.331H7.892a.66.66,0,0,1-.571-.331l-2.634-4.6a.659.659,0,0,1,0-.653l2.634-4.6a.659.659,0,0,1,.571-.331h5.254a.659.659,0,0,1,.571.331l2.634,4.6A.659.659,0,0,1,16.351,10.846Z" transform="translate(0 0)" fill="#7173c9"/>
    <path id="Path_135231" data-name="Path 135231" d="M52.3,50a2.3,2.3,0,1,0,2.3,2.3A2.3,2.3,0,0,0,52.3,50Zm0,3.945A1.644,1.644,0,1,1,53.942,52.3,1.644,1.644,0,0,1,52.3,53.948Z" transform="translate(-41.779 -41.784)" fill="#7173c9"/>
  </g>
</svg>
