<svg xmlns="http://www.w3.org/2000/svg" width="139.223" height="17.847" viewBox="0 0 139.223 17.847">
  <g id="Group_75390" data-name="Group 75390" transform="translate(-0.891 -8.242)">
    <path id="Path_617" data-name="Path 617" d="M13.664,39.553l-1.543-3.6H5.027l-1.521,3.6H.891l3.558-8.359H7.063l-.986,2.315h5.015q-3.6-8.444-3.814-8.959H9.892l6.387,15H13.664Z" transform="translate(0 -13.464)" fill="#fff"/>
    <path id="Path_618" data-name="Path 618" d="M113.278,28.686a4.358,4.358,0,0,1-4.351,4.544h-5.143v6.323H101.4v-8.68h7.544a1.972,1.972,0,0,0,0-3.944H101.4V24.55h7.523a4.176,4.176,0,0,1,2.99,1.2,4.277,4.277,0,0,1,1.361,2.915v.021Z" transform="translate(-82.982 -13.464)" fill="#fff"/>
    <path id="Path_619" data-name="Path 619" d="M181.769,24.55h11.573v2.379H181.769Zm11.573,12.624v2.379H181.769v-8.68h11.573V33.23h-9.195v3.944h9.195Z" transform="translate(-149.33 -13.464)" fill="#fff"/>
    <path id="Path_620" data-name="Path 620" d="M273.742,39.552h-2.893Q269.069,37,265.587,32t-5.176-7.448H263.3l3.772,5.423,3.772-5.423h2.893l-5.208,7.5Zm-8.1-3.343L263.3,39.552h-2.893l2.336-3.343Z" transform="translate(-214.255 -13.463)" fill="#fff"/>
    <path id="Path_621" data-name="Path 621" d="M402.611,21.5l-1.543,1.843a5.133,5.133,0,0,0-3.686-1.307,3.782,3.782,0,0,0-1.243.321,2.424,2.424,0,0,0-.857.643,2.049,2.049,0,0,0-.45,1.457,1.412,1.412,0,0,0,.311.643,2.733,2.733,0,0,0,.515.493,3.716,3.716,0,0,0,.782.4q.514.2.846.3t.976.289q1.049.3,1.6.482a10.2,10.2,0,0,1,1.361.6,3.747,3.747,0,0,1,1.2.89,3.881,3.881,0,0,1,.643,1.254,4.572,4.572,0,0,1,.171,1.811v.021a4.107,4.107,0,0,1-.857,2.036,4.812,4.812,0,0,1-2.315,1.521,6.972,6.972,0,0,1-3,.214,10.426,10.426,0,0,1-5.294-2.358l1.5-1.865a8.12,8.12,0,0,0,4.073,1.822,4.546,4.546,0,0,0,1.993-.128,2.252,2.252,0,0,0,1.157-.729,1.588,1.588,0,0,0,.343-.793,1.517,1.517,0,0,0-.161-.782,2.04,2.04,0,0,0-.429-.579,2.82,2.82,0,0,0-.772-.45q-.526-.225-.868-.343t-1.018-.311q-.676-.193-1.018-.3t-.954-.332a6.283,6.283,0,0,1-.943-.418q-.333-.193-.782-.515a2.857,2.857,0,0,1-.7-.675,4.74,4.74,0,0,1-.46-.857,4.389,4.389,0,0,1-.3-1.082v-.086a4.347,4.347,0,0,1,1.007-3.194,4.8,4.8,0,0,1,1.672-1.265,6.155,6.155,0,0,1,2.1-.536,6.815,6.815,0,0,1,1.779.107,7.886,7.886,0,0,1,1.843.611A7.977,7.977,0,0,1,402.611,21.5Z" transform="translate(-322.7 -9.391)" fill="#fff"/>
    <path id="Path_622" data-name="Path 622" d="M482.153,26.929H469.915V24.55h12.238Zm-4.929,12.624h-2.379V29.308h2.379Z" transform="translate(-387.218 -13.464)" fill="#fff"/>
    <path id="Path_623" data-name="Path 623" d="M659.245,39.553,655.3,33.23h-3.236v6.323h-2.379v-8.68h7.544a1.972,1.972,0,0,0,0-3.944h-7.544V24.55h7.523a4.176,4.176,0,0,1,2.99,1.2,4.278,4.278,0,0,1,1.361,2.915v.021a4.4,4.4,0,0,1-3.515,4.479l3.987,6.387h-2.786Z" transform="translate(-535.634 -13.464)" fill="#fff"/>
    <path id="Path_624" data-name="Path 624" d="M732.753,24.55h11.574v2.379H732.753Zm11.574,12.624v2.379H732.753v-8.68h11.574V33.23h-9.195v3.944h9.195Z" transform="translate(-604.213 -13.464)" fill="#fff"/>
    <g id="Group_149" data-name="Group 149" transform="translate(95.203 8.242)">
      <g id="Group_148" data-name="Group 148" transform="translate(0 0)">
        <g id="Group_145" data-name="Group 145" transform="translate(3.018 5.853)">
          <g id="Group_144" data-name="Group 144">
            <path id="Path_625" data-name="Path 625" d="M570.638,45.75a.913.913,0,0,0-.957-.749c-.391,0-.787,0-1.178,0a.2.2,0,0,1-.188-.094c-.683-.942-1.366-1.88-2.05-2.822a.69.69,0,0,0-.975-.151.678.678,0,0,0-.132.957c.448.589.9,1.183,1.348,1.776.08.1.156.207.24.32h-3.915c.038-.052.071-.094.1-.137q.735-.975,1.479-1.951a.68.68,0,0,0-.127-.966.691.691,0,0,0-.975.151q-1.032,1.414-2.054,2.832a.193.193,0,0,1-.174.085c-.415,0-.829,0-1.248,0a.912.912,0,0,0-.891.716.237.237,0,0,1-.024.061v.278a2.588,2.588,0,0,0,.089.245.943.943,0,0,0,.7.532c.122.024.184.085.212.245.1.561.207,1.121.306,1.687.038.207.075.41.113.617.118.641.231,1.282.353,1.922a.683.683,0,0,0,.716.561h6.761a.689.689,0,0,0,.726-.608c.127-.7.25-1.39.377-2.087s.254-1.381.377-2.068c.038-.2.075-.217.278-.278a.956.956,0,0,0,.7-.683l.028-.085v-.278A.1.1,0,0,1,570.638,45.75Zm-5.112-3.128a.225.225,0,0,1,.358-.273q.954,1.307,1.9,2.615c0,.009,0,.014.014.038-.146,0-.278,0-.41,0a.174.174,0,0,1-.1-.057C566.7,44.172,566.115,43.4,565.527,42.622Zm-2.917,1.216c.353-.49.707-.975,1.06-1.461a.229.229,0,0,1,.339-.071.222.222,0,0,1,.024.339c-.575.759-1.154,1.522-1.734,2.28a.233.233,0,0,1-.151.075c-.118.009-.24,0-.386,0Zm7.143,2.535a.908.908,0,0,1-.113,0H565.8a.9.9,0,0,0-.113,0,.225.225,0,0,0-.207.222.217.217,0,0,0,.193.226.576.576,0,0,0,.127,0h3.435c-.179.98-.353,1.936-.528,2.9l-.057.311c-.066.358-.132.721-.193,1.079-.042.24-.1.292-.339.292h-6.657c-.236,0-.3-.052-.339-.278-.075-.415-.151-.834-.226-1.248l-.551-3.025a.132.132,0,0,1,0-.024h3.416a1.024,1.024,0,0,0,.118,0,.226.226,0,0,0,0-.452.908.908,0,0,0-.113,0c-1.286,0-2.568,0-3.854,0a.79.79,0,0,1-.212-.019.452.452,0,0,1-.32-.485.463.463,0,0,1,.429-.405.7.7,0,0,1,.1,0q4.876,0,9.753,0a.747.747,0,0,1,.179.014.451.451,0,0,1,.353.481A.457.457,0,0,1,569.753,46.372Z" transform="translate(-558.921 -41.801)" fill="#fff"/>
            <path id="Path_626" data-name="Path 626" d="M591.71,68.254a.228.228,0,1,1-.227-.224A.231.231,0,0,1,591.71,68.254Z" transform="translate(-585.614 -63.455)" fill="#fff"/>
          </g>
        </g>
        <g id="Group_147" data-name="Group 147">
          <g id="Group_146" data-name="Group 146">
            <path id="Path_627" data-name="Path 627" d="M558.765,13.7a8.772,8.772,0,0,0-4.754-4.754,8.966,8.966,0,0,0-7.953.495,8.926,8.926,0,0,0,0,15.449,8.947,8.947,0,0,0,8.956,0,8.961,8.961,0,0,0,3.251-3.251,8.681,8.681,0,0,0,1.2-4.471A8.771,8.771,0,0,0,558.765,13.7Zm-3.656,7.567q-.106.12-.226.24c-.108.108-.221.217-.339.316a6.148,6.148,0,0,1-7.812.155,5.48,5.48,0,0,1-.528-.471l-.028-.028a5.911,5.911,0,0,1-1.767-4.311,6.134,6.134,0,1,1,12.269,0A5.886,5.886,0,0,1,555.109,21.264Z" transform="translate(-541.62 -8.242)" fill="#fff"/>
          </g>
        </g>
      </g>
    </g>
  </g>
</svg>
