<svg xmlns="http://www.w3.org/2000/svg" xmlns:xlink="http://www.w3.org/1999/xlink" width="46" height="46" viewBox="0 0 46 46">
  <defs>
    <linearGradient id="linear-gradient" x1="0.5" x2="0.5" y2="1" gradientUnits="objectBoundingBox">
      <stop offset="0" stop-color="#8d8af4"/>
      <stop offset="0.506" stop-color="#fc8af0"/>
      <stop offset="1" stop-color="#78b7ff"/>
      <stop offset="1" stop-color="#78b8ff"/>
    </linearGradient>
    <filter id="Ellipse_2319" x="0" y="0" width="46" height="46" filterUnits="userSpaceOnUse">
      <feOffset dy="3" input="SourceAlpha"/>
      <feGaussianBlur stdDeviation="3" result="blur"/>
      <feFlood flood-color="#4a4e9d"/>
      <feComposite operator="in" in2="blur"/>
      <feComposite in="SourceGraphic"/>
    </filter>
    <linearGradient id="linear-gradient-3" x1="0.558" y1="-1.26" x2="0.488" y2="0.748" gradientUnits="objectBoundingBox">
      <stop offset="0" stop-color="#5f63af"/>
      <stop offset="1" stop-color="#454999"/>
    </linearGradient>
    <linearGradient id="linear-gradient-4" x1="2.052" y1="-37.865" x2="0.257" y2="6.492" xlink:href="#linear-gradient-3"/>
  </defs>
  <g id="Group_74068" data-name="Group 74068" transform="translate(-1137.308 -197.308)">
    <g id="Group_74067" data-name="Group 74067" transform="translate(1145.984 202.984)">
      <g transform="matrix(1, 0, 0, 1, -8.68, -5.68)" filter="url(#Ellipse_2319)">
        <circle id="Ellipse_2319-2" data-name="Ellipse 2319" cx="14" cy="14" r="14" transform="translate(9 6)" opacity="0.07" fill="url(#linear-gradient)"/>
      </g>
      <circle id="Ellipse_2318" data-name="Ellipse 2318" cx="13" cy="13" r="13" transform="translate(1.324 1.324)" opacity="0.12" fill="url(#linear-gradient)"/>
      <g id="Group_74071" data-name="Group 74071" transform="translate(7.585 1.317)">
        <g id="Group_74069" data-name="Group 74069" transform="translate(6.739 0)">
          <line id="Line_567" data-name="Line 567" y1="10.921" fill="none" stroke="#4b4f9e" stroke-width="0.5" stroke-dasharray="2"/>
        </g>
        <g id="Group_74070" data-name="Group 74070" transform="translate(0 9.941)">
          <g id="Group_144" data-name="Group 144">
            <path id="Path_625" data-name="Path 625" d="M572.377,46.336a1.048,1.048,0,0,0-1.1-.86c-.449,0-.9,0-1.353.005a.234.234,0,0,1-.216-.108c-.785-1.082-1.569-2.159-2.354-3.241a.793.793,0,0,0-1.12-.173.779.779,0,0,0-.151,1.1c.514.676,1.034,1.358,1.547,2.04.092.119.179.238.276.368h-4.5c.043-.059.081-.108.119-.157q.844-1.12,1.7-2.24a.781.781,0,0,0-.146-1.109.793.793,0,0,0-1.12.173q-1.185,1.623-2.359,3.252a.222.222,0,0,1-.2.1c-.476-.005-.952-.005-1.434-.005a1.048,1.048,0,0,0-1.023.822.273.273,0,0,1-.027.07v.319a2.987,2.987,0,0,0,.1.281,1.083,1.083,0,0,0,.8.611c.141.027.211.1.243.281.119.644.238,1.288.352,1.937.043.238.086.471.13.709.135.736.265,1.472.406,2.207a.784.784,0,0,0,.822.644h7.764a.791.791,0,0,0,.833-.7c.146-.8.287-1.6.433-2.4s.292-1.585.433-2.375c.043-.227.087-.249.319-.319a1.1,1.1,0,0,0,.806-.785l.032-.1v-.319A.114.114,0,0,1,572.377,46.336Zm-5.87-3.593a.259.259,0,0,1,.411-.314q1.1,1.5,2.186,3c.005.011.005.016.016.043-.168,0-.319.005-.471,0a.2.2,0,0,1-.119-.065C567.854,44.524,567.183,43.636,566.507,42.743Zm-3.349,1.4c.406-.563.812-1.12,1.217-1.677a.263.263,0,0,1,.39-.081.255.255,0,0,1,.027.39c-.66.871-1.326,1.748-1.991,2.619a.267.267,0,0,1-.173.087c-.135.011-.276,0-.444,0Zm8.2,2.911a1.042,1.042,0,0,1-.13.005h-4.41a1.041,1.041,0,0,0-.13,0,.258.258,0,0,0-.238.254.249.249,0,0,0,.222.26.661.661,0,0,0,.146.005h3.944c-.206,1.125-.406,2.224-.606,3.328l-.065.357c-.076.411-.151.828-.222,1.239-.049.276-.113.335-.389.335h-7.645c-.271,0-.341-.059-.39-.319-.086-.476-.173-.958-.26-1.434l-.633-3.474a.151.151,0,0,1,.005-.027h3.922a1.176,1.176,0,0,0,.135-.005.26.26,0,0,0,0-.52,1.042,1.042,0,0,0-.13,0c-1.477,0-2.949,0-4.426-.005a.906.906,0,0,1-.243-.022.52.52,0,0,1-.368-.557.532.532,0,0,1,.492-.465.8.8,0,0,1,.114-.005q5.6,0,11.2.005a.857.857,0,0,1,.206.016.518.518,0,0,1,.406.552A.525.525,0,0,1,571.36,47.05Z" transform="translate(-558.921 -41.801)" fill="url(#linear-gradient-3)"/>
            <path id="Path_626" data-name="Path 626" d="M591.778,68.287a.262.262,0,1,1-.26-.257A.265.265,0,0,1,591.778,68.287Z" transform="translate(-584.778 -62.776)" fill="url(#linear-gradient-4)"/>
          </g>
        </g>
      </g>
    </g>
  </g>
</svg>
