<svg xmlns="http://www.w3.org/2000/svg" xmlns:xlink="http://www.w3.org/1999/xlink" width="92" height="92" viewBox="0 0 92 92">
  <defs>
    <linearGradient id="linear-gradient" x1="0.5" x2="0.5" y2="1" gradientUnits="objectBoundingBox">
      <stop offset="0" stop-color="#8d8af4"/>
      <stop offset="0.506" stop-color="#869af8"/>
      <stop offset="1" stop-color="#78b7ff"/>
      <stop offset="1" stop-color="#78b8ff"/>
    </linearGradient>
    <filter id="Path_135245" x="0" y="0" width="92" height="92" filterUnits="userSpaceOnUse">
      <feOffset dy="5" input="SourceAlpha"/>
      <feGaussianBlur stdDeviation="4" result="blur"/>
      <feFlood flood-color="#cfcfcf" flood-opacity="0.188"/>
      <feComposite operator="in" in2="blur"/>
      <feComposite in="SourceGraphic"/>
    </filter>
  </defs>
  <g id="Group_74075" data-name="Group 74075" transform="translate(-564.664 -2652.664)">
    <g transform="matrix(1, 0, 0, 1, 564.66, 2652.66)" filter="url(#Path_135245)">
      <path id="Path_135245-2" data-name="Path 135245" d="M34,0A34,34,0,1,1,0,34,34,34,0,0,1,34,0Z" transform="translate(12 7)" fill="url(#linear-gradient)"/>
    </g>
    <path id="play_1_" data-name="play (1)" d="M26.3,3657.738l-10.992,7.431a4.035,4.035,0,0,1-6.306-3.3V3647a4.035,4.035,0,0,1,6.306-3.3l10.992,7.431a3.981,3.981,0,0,1,0,6.607" transform="translate(593.536 -960.771)" fill="#fff" fill-rule="evenodd"/>
  </g>
</svg>
