<svg xmlns="http://www.w3.org/2000/svg" width="20.938" height="15.035" viewBox="0 0 20.938 15.035">
  <g id="online-shopping_6_" data-name="online-shopping (6)" transform="translate(-88 -302.8)">
    <path id="Path_135785" data-name="Path 135785" d="M665.362,1155.756h-4.105a.247.247,0,0,1-.24-.19l-.3-1.258a.247.247,0,1,1,.481-.115l.256,1.069h3.715l.255-1.069a.247.247,0,0,1,.481.115l-.3,1.258A.247.247,0,0,1,665.362,1155.756Z" transform="translate(-564.84 -839.509)" fill="#7173c9"/>
    <path id="Path_135786" data-name="Path 135786" d="M183.575,314.989a.248.248,0,0,1-.247-.247V303.447a.153.153,0,0,0-.152-.152H165.647a.153.153,0,0,0-.153.152v11.294a.247.247,0,0,1-.495,0V303.447a.647.647,0,0,1,.647-.647h17.528a.647.647,0,0,1,.647.647v11.294A.247.247,0,0,1,183.575,314.989Z" transform="translate(-75.942)" fill="#7173c9"/>
    <path id="Path_135787" data-name="Path 135787" d="M97.448,527.042a.636.636,0,1,1,.636-.636A.637.637,0,0,1,97.448,527.042Zm0-.778a.142.142,0,1,0,.142.142A.141.141,0,0,0,97.448,526.264Zm3.138.778a.636.636,0,1,1,.636-.636A.637.637,0,0,1,100.586,527.042Zm0-.778a.142.142,0,1,0,.142.142A.141.141,0,0,0,100.586,526.264Zm1.125-.848H96.5a.247.247,0,0,1-.242-.2l-.839-3.975a.023.023,0,0,1,0-.01l-.136-.642h-.9a.247.247,0,0,1,0-.495h1.1a.247.247,0,0,1,.242.2l.136.646h6.692a.248.248,0,0,1,.242.3l-.841,3.98A.246.246,0,0,1,101.711,525.417Zm-5.01-.495h4.81l.736-3.485H95.966Zm9.143,7.228H91.094A3.093,3.093,0,0,1,88,529.056a.248.248,0,0,1,.247-.247h7.868a.247.247,0,0,1,0,.495h-7.61a2.6,2.6,0,0,0,2.587,2.352h14.751a2.6,2.6,0,0,0,2.588-2.352h-7.61a.247.247,0,0,1,0-.495h7.868a.248.248,0,0,1,.247.247,3.093,3.093,0,0,1-3.094,3.094Z" transform="translate(0 -214.315)" fill="#7173c9"/>
  </g>
</svg>
