<svg xmlns="http://www.w3.org/2000/svg" width="21.826" height="18.698" viewBox="0 0 21.826 18.698">
  <path id="opinion" d="M8.38,20.005h8.441l3.431,3.2a.346.346,0,0,0,.582-.253V20.005H21.4a1.176,1.176,0,0,0,1.176-1.176V10.213A1.176,1.176,0,0,0,21.4,9.037h-5.28V7.193a1.176,1.176,0,0,0-1.176-1.176H10.886A1.046,1.046,0,0,0,9.152,4.923L8.1,6.019H1.924A1.176,1.176,0,0,0,.748,7.2v8.616a1.176,1.176,0,0,0,1.176,1.176h.563v2.947a.346.346,0,0,0,.582.253l3.431-3.2h.7v1.844A1.176,1.176,0,0,0,8.38,20.005ZM21.4,9.729a.484.484,0,0,1,.484.484v8.616a.484.484,0,0,1-.484.484h-.908a.346.346,0,0,0-.346.346v2.5l-2.95-2.75a.344.344,0,0,0-.236-.093H8.38a.484.484,0,0,1-.484-.484V16.985h7.045a1.176,1.176,0,0,0,1.176-1.176V9.729ZM9.651,5.4a.365.365,0,0,1,.548.045.349.349,0,0,1,.039.33l-.925,2.4a.346.346,0,0,0,.323.47h3.128a.5.5,0,0,1,.493.558l-.542,4.408a.5.5,0,0,1-.494.437H8.041a1.18,1.18,0,0,1-.51-.115l-.3-.141a.356.356,0,0,0-.142-.033l-.433-.007V8.525ZM3.6,13.967V8.648H5.964v5.319Zm2.761,2.326a.346.346,0,0,0-.236.093l-2.949,2.75v-2.5a.346.346,0,0,0-.346-.346H1.924a.484.484,0,0,1-.484-.484V7.193a.484.484,0,0,1,.484-.484H7.439l-1.2,1.246H3.257a.346.346,0,0,0-.346.346v6.013a.346.346,0,0,0,.346.346H6.31a.346.346,0,0,0,.319-.212L7,14.454l.232.109a1.9,1.9,0,0,0,.805.18h4.181A1.19,1.19,0,0,0,13.4,13.7l.543-4.407a1.189,1.189,0,0,0-1.18-1.336H10.14l.48-1.246h4.321a.484.484,0,0,1,.484.484v8.616a.484.484,0,0,1-.484.484Z" transform="translate(-0.748 -4.6)" fill="#7173c9"/>
</svg>
