<svg xmlns="http://www.w3.org/2000/svg" width="18.518" height="18.518" viewBox="0 0 18.518 18.518">
  <g id="video" transform="translate(-2.5 -2.5)">
    <path id="Path_135243" data-name="Path 135243" d="M17.931,2.5H5.586A3.059,3.059,0,0,0,2.5,5.586V17.931a3.059,3.059,0,0,0,3.086,3.086H17.931a3.059,3.059,0,0,0,3.086-3.086V5.586A3.059,3.059,0,0,0,17.931,2.5Zm2.4,3.086v.343H18.761l1.372-1.372a2.359,2.359,0,0,1,.2,1.029Zm-.6-1.564L17.787,5.929H15.332l2.743-2.743A2.346,2.346,0,0,1,19.728,4ZM11.9,5.929l2.743-2.743H17.1L14.358,5.929Zm-3.429,0,2.743-2.743h2.455L10.929,5.929Zm-3.429,0L7.788,3.186h2.455L7.5,5.929Zm.542-2.743H6.814L4.07,5.929H3.186V5.586a2.373,2.373,0,0,1,2.4-2.4ZM17.931,20.331H5.586a2.373,2.373,0,0,1-2.4-2.4V6.615H20.331V17.931a2.373,2.373,0,0,1-2.4,2.4Z" fill="#7173c9"/>
    <path id="Path_135244" data-name="Path 135244" d="M6.068,21.98a1.022,1.022,0,0,1-1.022-1.029V15.321a.343.343,0,0,0-.686,0v5.631a1.708,1.708,0,0,0,1.708,1.715.343.343,0,1,0,0-.686Zm1.817,0H7.247a.343.343,0,1,0,0,.686h.638a.343.343,0,1,0,0-.686Zm7.729-6.858-4.643-2.853a1.049,1.049,0,0,0-1.6.9v5.727A1.056,1.056,0,0,0,10.43,19.95a.974.974,0,0,0,.542-.158l4.67-2.846a1.056,1.056,0,0,0,0-1.8Zm-.363,1.207-4.664,2.853a.35.35,0,0,1-.37,0,.363.363,0,0,1-.185-.322V13.167a.35.35,0,0,1,.185-.315A.377.377,0,0,1,10.4,12.8a.35.35,0,0,1,.185.055l4.664,2.846a.37.37,0,0,1,.178.315A.343.343,0,0,1,15.251,16.329Z" transform="translate(-0.584 -3.021)" fill="#7173c9"/>
  </g>
</svg>
