<svg xmlns="http://www.w3.org/2000/svg" xmlns:xlink="http://www.w3.org/1999/xlink" width="1347.252" height="172.705" viewBox="0 0 1347.252 172.705">
  <defs>
    <linearGradient id="linear-gradient" x1="0.558" y1="-1.26" x2="0.488" y2="0.748" gradientUnits="objectBoundingBox">
      <stop offset="0" stop-color="#8d8af4"/>
      <stop offset="0.506" stop-color="#fc8af0"/>
      <stop offset="1" stop-color="#78b7ff"/>
      <stop offset="1" stop-color="#78b8ff"/>
    </linearGradient>
    <linearGradient id="linear-gradient-2" x1="2.052" y1="-37.865" x2="0.257" y2="6.492" xlink:href="#linear-gradient"/>
    <linearGradient id="linear-gradient-3" x1="0.536" y1="-0.383" x2="0.49" y2="0.75" xlink:href="#linear-gradient"/>
    <linearGradient id="linear-gradient-4" x1="-0.409" y1="0.5" x2="23.684" y2="0.5" gradientUnits="objectBoundingBox">
      <stop offset="0.409" stop-color="#7173c9"/>
      <stop offset="1" stop-color="#4f51a4"/>
    </linearGradient>
    <linearGradient id="linear-gradient-5" x1="-2.005" y1="0.5" x2="29.204" y2="0.5" xlink:href="#linear-gradient-4"/>
    <linearGradient id="linear-gradient-6" x1="-3.269" y1="0.5" x2="28.765" y2="0.5" xlink:href="#linear-gradient-4"/>
    <linearGradient id="linear-gradient-7" x1="-3.867" y1="0.5" x2="23.943" y2="0.5" xlink:href="#linear-gradient-4"/>
    <linearGradient id="linear-gradient-8" x1="-0.204" y1="0.5" x2="15.049" y2="0.5" xlink:href="#linear-gradient-4"/>
    <linearGradient id="linear-gradient-9" x1="-1.305" y1="0.5" x2="13.012" y2="0.5" xlink:href="#linear-gradient-4"/>
    <linearGradient id="linear-gradient-10" x1="-3.834" y1="0.5" x2="10.359" y2="0.5" xlink:href="#linear-gradient-4"/>
    <linearGradient id="linear-gradient-11" x1="-5.341" y1="0.5" x2="9.798" y2="0.5" xlink:href="#linear-gradient-4"/>
  </defs>
  <g id="Group_75883" data-name="Group 75883" transform="translate(-9 -2118.171)">
    <g id="Group_74059" data-name="Group 74059" transform="translate(924 2118.171)" opacity="0.1">
      <g id="Group_148" data-name="Group 148" transform="translate(0 0)">
        <g id="Group_145" data-name="Group 145" transform="translate(29.201 56.641)">
          <g id="Group_144" data-name="Group 144">
            <path id="Path_625" data-name="Path 625" d="M672.309,80.017c-1.185-4.7-4.377-7.249-9.256-7.249-3.785,0-7.614,0-11.4.046a1.977,1.977,0,0,1-1.823-.911C643.221,62.782,636.61,53.71,630,44.591a6.682,6.682,0,0,0-9.437-1.458,6.561,6.561,0,0,0-1.275,9.256c4.33,5.7,8.709,11.443,13.04,17.189.775,1,1.505,2.007,2.326,3.1H596.764c.365-.5.686-.911,1-1.322q7.112-9.438,14.316-18.875a6.58,6.58,0,0,0-1.23-9.347,6.685,6.685,0,0,0-9.438,1.458q-9.985,13.679-19.877,27.4a1.871,1.871,0,0,1-1.688.82c-4.012-.046-8.024-.046-12.081-.046a8.828,8.828,0,0,0-8.618,6.93,2.286,2.286,0,0,1-.228.592v2.69a25.156,25.156,0,0,0,.866,2.371,9.128,9.128,0,0,0,6.748,5.151c1.185.228,1.777.82,2.051,2.371,1,5.426,2.005,10.851,2.964,16.323.364,2.007.729,3.966,1.094,5.973,1.139,6.2,2.234,12.4,3.419,18.6.592,3.328,3.329,5.426,6.931,5.426h65.425a6.668,6.668,0,0,0,7.021-5.882c1.231-6.748,2.417-13.45,3.647-20.2,1.231-6.657,2.461-13.359,3.647-20.014.365-1.916.729-2.1,2.69-2.69a9.252,9.252,0,0,0,6.794-6.611l.273-.82v-2.69A.96.96,0,0,1,672.309,80.017ZM622.843,49.744a2.18,2.18,0,0,1,3.465-2.645q9.232,12.651,18.419,25.3c.045.091.045.137.136.365-1.414,0-2.69.046-3.966,0a1.689,1.689,0,0,1-1-.547C634.195,64.744,628.541,57.267,622.843,49.744ZM594.619,61.506c3.42-4.741,6.839-9.437,10.259-14.134a2.213,2.213,0,0,1,3.283-.684c1.05.775,1.185,2.007.228,3.283-5.561,7.34-11.17,14.726-16.777,22.067a2.25,2.25,0,0,1-1.46.729c-1.139.091-2.326,0-3.739,0C589.24,68.894,591.93,65.2,594.619,61.506Zm69.12,24.529a8.787,8.787,0,0,1-1.094.046H625.487a8.757,8.757,0,0,0-1.094,0,2.176,2.176,0,0,0-2.005,2.143,2.1,2.1,0,0,0,1.868,2.189,5.57,5.57,0,0,0,1.231.046h33.236c-1.733,9.484-3.419,18.738-5.105,28.04q-.274,1.5-.547,3.009c-.638,3.465-1.276,6.976-1.87,10.441-.41,2.326-.957,2.827-3.283,2.827H583.5c-2.28,0-2.872-.5-3.283-2.69-.729-4.012-1.46-8.069-2.189-12.081q-2.669-14.636-5.336-29.27a1.273,1.273,0,0,1,.046-.228h33.054a9.917,9.917,0,0,0,1.139-.046,2.191,2.191,0,0,0,0-4.378,8.786,8.786,0,0,0-1.1,0c-12.446,0-24.848,0-37.294-.046a7.645,7.645,0,0,1-2.052-.182,4.377,4.377,0,0,1-3.1-4.7,4.479,4.479,0,0,1,4.149-3.921,6.722,6.722,0,0,1,.957-.046q47.188,0,94.376.046a7.227,7.227,0,0,1,1.733.137,4.363,4.363,0,0,1,3.42,4.65A4.427,4.427,0,0,1,663.739,86.036Z" transform="translate(-558.921 -41.801)" fill="url(#linear-gradient)"/>
            <path id="Path_626" data-name="Path 626" d="M595.673,70.2a2.21,2.21,0,1,1-2.193-2.165A2.233,2.233,0,0,1,595.673,70.2Z" transform="translate(-536.682 -23.76)" fill="url(#linear-gradient-2)"/>
          </g>
        </g>
        <g id="Group_147" data-name="Group 147">
          <g id="Group_146" data-name="Group 146">
            <path id="Path_627" data-name="Path 627" d="M707.532,61.039a84.883,84.883,0,0,0-46-46,86.762,86.762,0,0,0-76.961,4.787A85.856,85.856,0,0,0,541.62,94.594a85.855,85.855,0,0,0,42.948,74.727,86.582,86.582,0,0,0,86.672,0,86.715,86.715,0,0,0,31.46-31.459,84,84,0,0,0,11.626-43.267A84.873,84.873,0,0,0,707.532,61.039ZM672.153,134.26q-1.028,1.162-2.189,2.326c-1.048,1.048-2.143,2.1-3.283,3.055q-16.345,14.294-38.708,14.316c-14.089,0-26.352-4.24-36.884-12.812a53,53,0,0,1-5.107-4.559l-.273-.273a57.2,57.2,0,0,1-17.1-41.718,57.237,57.237,0,0,1,17.371-42.037,59.55,59.55,0,0,1,83.983,0,57.237,57.237,0,0,1,17.371,42.037Q687.332,117.575,672.153,134.26Z" transform="translate(-541.62 -8.242)" fill="url(#linear-gradient-3)"/>
          </g>
        </g>
      </g>
    </g>
    <g id="Group_74058" data-name="Group 74058" transform="translate(8.109 2100.328)" opacity="0.06">
      <path id="Path_617" data-name="Path 617" d="M124.5,169.73l-14.929-34.842H40.918L26.195,169.732H.891L35.319,88.844h25.3l-9.54,22.4H99.61Q64.773,29.531,62.7,24.55H88l61.8,145.182H124.5Z" transform="translate(0 11.217)" fill="url(#linear-gradient-4)"/>
      <path id="Path_618" data-name="Path 618" d="M216.306,64.577a40.4,40.4,0,0,1-11.614,30.9A40.476,40.476,0,0,1,174.2,108.548H124.428v61.184H101.4v-84h73.005A19.115,19.115,0,0,0,193.49,66.651,19.115,19.115,0,0,0,174.409,47.57H101.4V24.55h72.8a40.411,40.411,0,0,1,28.936,11.614A41.393,41.393,0,0,1,216.3,64.373v.2Z" transform="translate(69.135 11.217)" fill="url(#linear-gradient-5)"/>
      <path id="Path_619" data-name="Path 619" d="M181.769,24.55H293.763V47.57H181.769ZM293.763,146.71v23.02H181.769v-84H293.763v22.814H204.786v38.162h88.977Z" transform="translate(124.412 11.217)" fill="url(#linear-gradient-6)"/>
      <path id="Path_620" data-name="Path 620" d="M389.411,169.731h-28q-17.219-24.682-50.915-73.11T260.411,24.549h28l36.5,52.474,36.5-52.474h28l-50.4,72.59Zm-78.4-32.354-22.607,32.354h-28l22.607-32.354Z" transform="translate(178.504 11.216)" fill="url(#linear-gradient-7)"/>
      <path id="Path_621" data-name="Path 621" d="M496.712,37.83,481.776,55.667q-16.8-13.892-35.672-12.649a36.6,36.6,0,0,0-12.027,3.111,23.458,23.458,0,0,0-8.3,6.223,19.83,19.83,0,0,0-4.355,14.1,13.668,13.668,0,0,0,3.009,6.22,26.454,26.454,0,0,0,4.979,4.773,35.973,35.973,0,0,0,7.568,3.835q4.975,1.975,8.19,2.9t9.442,2.8q10.152,2.906,15.448,4.669a98.672,98.672,0,0,1,13.168,5.8q7.879,4.048,11.617,8.608a37.545,37.545,0,0,1,6.219,12.132,44.237,44.237,0,0,1,1.659,17.526v.206a39.745,39.745,0,0,1-8.294,19.705q-8.3,10.162-22.4,14.723a67.468,67.468,0,0,1-29.036,2.074q-26.96-3.317-51.229-22.814l14.517-18.043q19.082,15.142,39.411,17.628a43.988,43.988,0,0,0,19.287-1.241q7.468-2.284,11.2-7.053a15.361,15.361,0,0,0,3.318-7.673,14.675,14.675,0,0,0-1.554-7.57,19.746,19.746,0,0,0-4.149-5.6,27.29,27.29,0,0,0-7.467-4.355q-5.086-2.175-8.4-3.318t-9.849-3.006q-6.537-1.866-9.852-2.9T429,103.267a60.822,60.822,0,0,1-9.124-4.044q-3.22-1.866-7.568-4.979a27.645,27.645,0,0,1-6.743-6.534,45.875,45.875,0,0,1-4.456-8.294A42.462,42.462,0,0,1,398.2,68.943v-.83a42.063,42.063,0,0,1,9.747-30.9,46.479,46.479,0,0,1,16.178-12.237,59.567,59.567,0,0,1,20.327-5.185,65.95,65.95,0,0,1,17.216,1.036A76.313,76.313,0,0,1,479.5,26.736,77.195,77.195,0,0,1,496.712,37.83Z" transform="translate(268.853 7.824)" fill="url(#linear-gradient-8)"/>
      <path id="Path_622" data-name="Path 622" d="M588.341,47.57H469.915V24.55H588.341Zm-47.7,122.16H517.617V70.59H540.64Z" transform="translate(322.606 11.217)" fill="url(#linear-gradient-9)"/>
      <path id="Path_623" data-name="Path 623" d="M742.188,169.73l-38.162-61.184H672.71V169.73H649.686v-84h73.005a19.115,19.115,0,0,0,19.081-19.081A19.115,19.115,0,0,0,722.691,47.57H649.686V24.55h72.8a40.41,40.41,0,0,1,28.936,11.614,41.4,41.4,0,0,1,13.169,28.209v.206a41.289,41.289,0,0,1-9.024,27.895,41.14,41.14,0,0,1-24.993,15.452l38.58,61.806H742.188Z" transform="translate(446.256 11.217)" fill="url(#linear-gradient-10)"/>
      <path id="Path_624" data-name="Path 624" d="M732.753,24.55h112V47.57h-112Zm112,122.16v23.02h-112v-84h112v22.814H755.774v38.162h88.977Z" transform="translate(503.392 11.217)" fill="url(#linear-gradient-11)"/>
    </g>
  </g>
</svg>
